<mxfile host="Electron" agent="Mozilla/5.0 (Windows NT 10.0; Win64; x64) AppleWebKit/537.36 (KHTML, like Gecko) draw.io/24.7.17 Chrome/128.0.6613.36 Electron/32.0.1 Safari/537.36" version="24.7.17">
  <diagram name="Page-1" id="YMLUb8_VSHrh5fv_0WyJ">
    <mxGraphModel dx="1194" dy="657" grid="1" gridSize="10" guides="1" tooltips="1" connect="1" arrows="1" fold="1" page="1" pageScale="1" pageWidth="850" pageHeight="1100" math="0" shadow="0">
      <root>
        <mxCell id="0" />
        <mxCell id="1" parent="0" />
        <mxCell id="HkzhEfV4GWmjbY-h2OJn-2" value="" style="rounded=0;whiteSpace=wrap;html=1;" parent="1" vertex="1">
          <mxGeometry x="170" y="190" width="800" height="500" as="geometry" />
        </mxCell>
        <mxCell id="HkzhEfV4GWmjbY-h2OJn-4" value="" style="rounded=0;whiteSpace=wrap;html=1;" parent="1" vertex="1">
          <mxGeometry x="170" y="190" width="800" height="170" as="geometry" />
        </mxCell>
        <mxCell id="HkzhEfV4GWmjbY-h2OJn-6" value="" style="rounded=0;whiteSpace=wrap;html=1;" parent="1" vertex="1">
          <mxGeometry x="170" y="190" width="800" height="30" as="geometry" />
        </mxCell>
        <mxCell id="HkzhEfV4GWmjbY-h2OJn-7" value="Sign out&amp;nbsp;" style="text;html=1;align=center;verticalAlign=middle;whiteSpace=wrap;rounded=0;" parent="1" vertex="1">
          <mxGeometry x="180" y="190" width="80" height="30" as="geometry" />
        </mxCell>
        <mxCell id="HkzhEfV4GWmjbY-h2OJn-8" value="Account" style="text;html=1;align=center;verticalAlign=middle;whiteSpace=wrap;rounded=0;" parent="1" vertex="1">
          <mxGeometry x="250" y="190" width="80" height="30" as="geometry" />
        </mxCell>
        <mxCell id="HkzhEfV4GWmjbY-h2OJn-9" value="&lt;font style=&quot;font-size: 24px;&quot;&gt;Total Balance&lt;/font&gt;&lt;div&gt;&lt;font size=&quot;3&quot;&gt;0.00 EUR&lt;/font&gt;&lt;/div&gt;" style="text;html=1;align=left;verticalAlign=middle;whiteSpace=wrap;rounded=0;" parent="1" vertex="1">
          <mxGeometry x="190" y="230" width="160" height="50" as="geometry" />
        </mxCell>
        <mxCell id="HkzhEfV4GWmjbY-h2OJn-10" value="Add Money" style="rounded=1;whiteSpace=wrap;html=1;" parent="1" vertex="1">
          <mxGeometry x="190" y="310" width="120" height="40" as="geometry" />
        </mxCell>
        <mxCell id="HkzhEfV4GWmjbY-h2OJn-11" value="Withdraw Money" style="rounded=1;whiteSpace=wrap;html=1;" parent="1" vertex="1">
          <mxGeometry x="330" y="310" width="120" height="40" as="geometry" />
        </mxCell>
        <mxCell id="HkzhEfV4GWmjbY-h2OJn-12" value="Account Detail" style="rounded=1;whiteSpace=wrap;html=1;" parent="1" vertex="1">
          <mxGeometry x="470" y="310" width="120" height="40" as="geometry" />
        </mxCell>
        <mxCell id="HkzhEfV4GWmjbY-h2OJn-13" value="" style="endArrow=classic;html=1;rounded=0;" parent="1" edge="1">
          <mxGeometry width="50" height="50" relative="1" as="geometry">
            <mxPoint x="290" y="200" as="sourcePoint" />
            <mxPoint x="290" y="150" as="targetPoint" />
          </mxGeometry>
        </mxCell>
        <mxCell id="HkzhEfV4GWmjbY-h2OJn-15" value="Account Include personal detail, exchange rate,&lt;div&gt;Account detail,&lt;/div&gt;&lt;div&gt;transaction,&lt;/div&gt;&lt;div&gt;spending detail, change password&lt;/div&gt;" style="rounded=1;whiteSpace=wrap;html=1;" parent="1" vertex="1">
          <mxGeometry x="230" y="50" width="120" height="100" as="geometry" />
        </mxCell>
        <mxCell id="HkzhEfV4GWmjbY-h2OJn-16" value="Transaction" style="rounded=1;whiteSpace=wrap;html=1;" parent="1" vertex="1">
          <mxGeometry x="610" y="310" width="120" height="40" as="geometry" />
        </mxCell>
        <mxCell id="HkzhEfV4GWmjbY-h2OJn-18" style="edgeStyle=orthogonalEdgeStyle;rounded=0;orthogonalLoop=1;jettySize=auto;html=1;exitX=0.5;exitY=1;exitDx=0;exitDy=0;" parent="1" source="HkzhEfV4GWmjbY-h2OJn-15" target="HkzhEfV4GWmjbY-h2OJn-15" edge="1">
          <mxGeometry relative="1" as="geometry" />
        </mxCell>
        <mxCell id="HkzhEfV4GWmjbY-h2OJn-20" value="Language" style="text;html=1;align=center;verticalAlign=middle;whiteSpace=wrap;rounded=0;" parent="1" vertex="1">
          <mxGeometry x="330" y="190" width="80" height="30" as="geometry" />
        </mxCell>
        <mxCell id="_IYo9HQytFfNwGE87hYT-14" value="" style="shape=table;startSize=0;container=1;collapsible=0;childLayout=tableLayout;fontSize=16;" vertex="1" parent="1">
          <mxGeometry x="190" y="370" width="760" height="170" as="geometry" />
        </mxCell>
        <mxCell id="_IYo9HQytFfNwGE87hYT-15" value="" style="shape=tableRow;horizontal=0;startSize=0;swimlaneHead=0;swimlaneBody=0;strokeColor=inherit;top=0;left=0;bottom=0;right=0;collapsible=0;dropTarget=0;fillColor=none;points=[[0,0.5],[1,0.5]];portConstraint=eastwest;fontSize=16;" vertex="1" parent="_IYo9HQytFfNwGE87hYT-14">
          <mxGeometry width="760" height="57" as="geometry" />
        </mxCell>
        <mxCell id="_IYo9HQytFfNwGE87hYT-16" value="" style="shape=partialRectangle;html=1;whiteSpace=wrap;connectable=0;strokeColor=inherit;overflow=hidden;fillColor=none;top=0;left=0;bottom=0;right=0;pointerEvents=1;fontSize=16;" vertex="1" parent="_IYo9HQytFfNwGE87hYT-15">
          <mxGeometry width="253" height="57" as="geometry">
            <mxRectangle width="253" height="57" as="alternateBounds" />
          </mxGeometry>
        </mxCell>
        <mxCell id="_IYo9HQytFfNwGE87hYT-17" value="" style="shape=partialRectangle;html=1;whiteSpace=wrap;connectable=0;strokeColor=inherit;overflow=hidden;fillColor=none;top=0;left=0;bottom=0;right=0;pointerEvents=1;fontSize=16;" vertex="1" parent="_IYo9HQytFfNwGE87hYT-15">
          <mxGeometry x="253" width="254" height="57" as="geometry">
            <mxRectangle width="254" height="57" as="alternateBounds" />
          </mxGeometry>
        </mxCell>
        <mxCell id="_IYo9HQytFfNwGE87hYT-18" value="" style="shape=partialRectangle;html=1;whiteSpace=wrap;connectable=0;strokeColor=inherit;overflow=hidden;fillColor=none;top=0;left=0;bottom=0;right=0;pointerEvents=1;fontSize=16;" vertex="1" parent="_IYo9HQytFfNwGE87hYT-15">
          <mxGeometry x="507" width="253" height="57" as="geometry">
            <mxRectangle width="253" height="57" as="alternateBounds" />
          </mxGeometry>
        </mxCell>
        <mxCell id="_IYo9HQytFfNwGE87hYT-19" value="" style="shape=tableRow;horizontal=0;startSize=0;swimlaneHead=0;swimlaneBody=0;strokeColor=inherit;top=0;left=0;bottom=0;right=0;collapsible=0;dropTarget=0;fillColor=none;points=[[0,0.5],[1,0.5]];portConstraint=eastwest;fontSize=16;" vertex="1" parent="_IYo9HQytFfNwGE87hYT-14">
          <mxGeometry y="57" width="760" height="56" as="geometry" />
        </mxCell>
        <mxCell id="_IYo9HQytFfNwGE87hYT-20" value="" style="shape=partialRectangle;html=1;whiteSpace=wrap;connectable=0;strokeColor=inherit;overflow=hidden;fillColor=none;top=0;left=0;bottom=0;right=0;pointerEvents=1;fontSize=16;" vertex="1" parent="_IYo9HQytFfNwGE87hYT-19">
          <mxGeometry width="253" height="56" as="geometry">
            <mxRectangle width="253" height="56" as="alternateBounds" />
          </mxGeometry>
        </mxCell>
        <mxCell id="_IYo9HQytFfNwGE87hYT-21" value="" style="shape=partialRectangle;html=1;whiteSpace=wrap;connectable=0;strokeColor=inherit;overflow=hidden;fillColor=none;top=0;left=0;bottom=0;right=0;pointerEvents=1;fontSize=16;" vertex="1" parent="_IYo9HQytFfNwGE87hYT-19">
          <mxGeometry x="253" width="254" height="56" as="geometry">
            <mxRectangle width="254" height="56" as="alternateBounds" />
          </mxGeometry>
        </mxCell>
        <mxCell id="_IYo9HQytFfNwGE87hYT-22" value="" style="shape=partialRectangle;html=1;whiteSpace=wrap;connectable=0;strokeColor=inherit;overflow=hidden;fillColor=none;top=0;left=0;bottom=0;right=0;pointerEvents=1;fontSize=16;" vertex="1" parent="_IYo9HQytFfNwGE87hYT-19">
          <mxGeometry x="507" width="253" height="56" as="geometry">
            <mxRectangle width="253" height="56" as="alternateBounds" />
          </mxGeometry>
        </mxCell>
        <mxCell id="_IYo9HQytFfNwGE87hYT-23" value="" style="shape=tableRow;horizontal=0;startSize=0;swimlaneHead=0;swimlaneBody=0;strokeColor=inherit;top=0;left=0;bottom=0;right=0;collapsible=0;dropTarget=0;fillColor=none;points=[[0,0.5],[1,0.5]];portConstraint=eastwest;fontSize=16;" vertex="1" parent="_IYo9HQytFfNwGE87hYT-14">
          <mxGeometry y="113" width="760" height="57" as="geometry" />
        </mxCell>
        <mxCell id="_IYo9HQytFfNwGE87hYT-24" value="" style="shape=partialRectangle;html=1;whiteSpace=wrap;connectable=0;strokeColor=inherit;overflow=hidden;fillColor=none;top=0;left=0;bottom=0;right=0;pointerEvents=1;fontSize=16;" vertex="1" parent="_IYo9HQytFfNwGE87hYT-23">
          <mxGeometry width="253" height="57" as="geometry">
            <mxRectangle width="253" height="57" as="alternateBounds" />
          </mxGeometry>
        </mxCell>
        <mxCell id="_IYo9HQytFfNwGE87hYT-25" value="" style="shape=partialRectangle;html=1;whiteSpace=wrap;connectable=0;strokeColor=inherit;overflow=hidden;fillColor=none;top=0;left=0;bottom=0;right=0;pointerEvents=1;fontSize=16;" vertex="1" parent="_IYo9HQytFfNwGE87hYT-23">
          <mxGeometry x="253" width="254" height="57" as="geometry">
            <mxRectangle width="254" height="57" as="alternateBounds" />
          </mxGeometry>
        </mxCell>
        <mxCell id="_IYo9HQytFfNwGE87hYT-26" value="" style="shape=partialRectangle;html=1;whiteSpace=wrap;connectable=0;strokeColor=inherit;overflow=hidden;fillColor=none;top=0;left=0;bottom=0;right=0;pointerEvents=1;fontSize=16;" vertex="1" parent="_IYo9HQytFfNwGE87hYT-23">
          <mxGeometry x="507" width="253" height="57" as="geometry">
            <mxRectangle width="253" height="57" as="alternateBounds" />
          </mxGeometry>
        </mxCell>
      </root>
    </mxGraphModel>
  </diagram>
</mxfile>
